# xmcd
#
# Track frame offsets:
#	150
#	17544
#	36305
#	53297
#	69443
#	87036
#	102347
#	116965
#	138977
#	151441
#	174153
#	188867
#	207610
#	228725
#	241512
#	257094
#
# Disc length: 3714 seconds
#
# Revision: 1
# Processed by: cddbd v1.5.2PL0 Copyright (c) Steve Scherf et al.
# Submitted via: audiograbber 1.83.01
#
DISCID=d00e8010
DTITLE=Lea Penanen - Me Leijonat cd 3/5 
DYEAR=2008
DGENRE=speech
TTITLE0=Luku 16. Karavaani mummulaan
TTITLE1=Luku 16. Karavaani mummulaan -osa2
TTITLE2=Luku 17. Leijonamummula
TTITLE3=Luku 17. Leijonamummula -osa 2
TTITLE4=Luku18. Yllätys
TTITLE5=Luku18. Yllätys -osa2
TTITLE6=Luku19. Isoveli
TTITLE7=Luku19. Isoveli -osa2
TTITLE8=Luku20. Nippetutti ja kotilisko
TTITLE9=Luku20. Nippetutti ja kotilisko -osa2
TTITLE10=Luku21. Vakavia asioita 
TTITLE11=Luku21. Vakavia asioita -osa2
TTITLE12=Luku22. Norsupalatsi 
TTITLE13=Luku22. Norsupalatsi -osa2
TTITLE14=Luku23. Avara Avara Meri
TTITLE15=Luku23. Avara Avara Meri -osa2
EXTD=
EXTT0=
EXTT1=
EXTT2=
EXTT3=
EXTT4=
EXTT5=
EXTT6=
EXTT7=
EXTT8=
EXTT9=
EXTT10=
EXTT11=
EXTT12=
EXTT13=
EXTT14=
EXTT15=
PLAYORDER=
